<svg width="16" height="14" viewBox="0 0 16 14" fill="none" xmlns="http://www.w3.org/2000/svg">
<path d="M8.23571 13.9146L13.2357 9.53955C13.3659 9.42561 13.3659 9.24104 13.2357 9.12712C13.1055 9.01318 12.8946 9.01318 12.7644 9.12712L8.33337 13.0043V0.291676C8.33337 0.130457 8.18427 0 8.00002 0C7.81577 0 7.66668 0.130457 7.66668 0.291676L7.66668 13.0043L3.23571 9.12712C3.10549 9.01318 2.89455 9.01318 2.76437 9.12712C2.69927 9.18408 2.66671 9.25873 2.66671 9.33335C2.66671 9.40797 2.69927 9.48259 2.76437 9.53958L7.76437 13.9146C7.89455 14.0285 8.10549 14.0285 8.23571 13.9146Z" fill="black"/>
</svg>
