<svg viewBox="0 0 407 207" fill="#FFFFFF" xmlns="http://www.w3.org/2000/svg">
<path fill-rule="evenodd" clip-rule="evenodd" d="M190.225 71.281C187.433 63.168 183.725 56.669 179.102 51.783C169.592 41.838 158.644 36.865 146.256 36.865C130.814 36.865 119.124 40.791 111.186 48.643C103.247 56.494 99.277 65.611 99.277 75.992C99.277 86.374 101.153 95.229 104.904 102.557C108.743 109.798 113.846 115.686 120.215 120.223C133.301 129.47 149.178 134.094 167.848 134.094H169.549C162.57 147.092 152.886 157.692 140.498 165.893C128.11 174.006 114.152 178.062 98.623 178.062C83.0944 178.062 69.7467 174.137 58.5801 166.285C39.4746 152.763 29.9219 131.04 29.9219 101.117C29.9219 84.629 35.3743 68.839 46.2793 53.746C51.6882 46.331 58.0566 39.701 65.3848 33.855C72.8001 27.923 81.4805 23.2122 91.426 19.7227C101.458 16.1458 110.357 14.3574 118.121 14.3574C125.973 14.3574 131.949 14.7064 136.049 15.4043L136.572 2.05657C129.942 0.92247 123.966 0.355469 118.645 0.355469C104.424 0.355469 90.902 2.62367 78.0781 7.16017C54.7852 15.2734 35.6797 29.799 20.7617 50.736C6.97791 70.016 0.085907 90.474 0.085907 112.109C0.085907 137.932 5.45121 158.608 16.1816 174.137C31.0124 195.685 52.4733 206.459 80.5645 206.459C95.133 206.459 109.615 203.493 124.01 197.561C138.404 191.541 151.403 182.817 163.006 171.389C174.696 159.96 183.202 146.918 188.523 132.262C204.052 129.208 217.705 123.058 229.482 113.811V101.771C217.007 109.187 204.794 113.811 192.842 115.643C193.889 110.234 194.412 103.516 194.412 95.49C194.412 87.377 193.016 79.307 190.225 71.281ZM137.227 102.818C126.932 93.658 121.785 82.143 121.785 68.271C121.785 63.124 123.486 59.068 126.889 56.102C130.378 53.135 135.656 51.652 142.723 51.652C154.762 51.652 163.965 55.665 170.334 63.691C176.79 71.717 180.018 81.968 180.018 94.443C180.018 102.033 178.84 109.536 176.484 116.951C160.607 116.689 147.521 111.979 137.227 102.818ZM220.201 146.994C216.751 152.105 213.349 155.734 209.996 157.883C209.996 156.646 210.745 153.895 212.242 149.631C213.772 145.334 215.53 141.232 217.516 137.326C219.534 133.387 221.064 131.418 222.105 131.418C224.286 131.418 225.377 132.508 225.377 134.689C225.377 137.749 223.652 141.851 220.201 146.994ZM199.986 159.494C198.489 164.735 197.496 168.348 197.008 170.334C196.52 172.287 195.836 175.119 194.957 178.83C194.111 182.541 193.541 185.747 193.248 188.449C192.955 191.118 192.809 193.788 192.809 196.457C192.809 199.094 193.395 201.226 194.566 202.854C195.25 203.798 196.308 204.514 197.74 205.002C199.205 205.523 201.435 205.783 204.43 205.783C207.457 205.783 210.875 205.327 214.684 204.416C216.344 204.025 218.036 203.488 219.762 202.805C221.487 202.089 222.968 201.454 224.205 200.9C225.442 200.314 226.809 199.517 228.307 198.508C229.837 197.499 231.529 196.343 233.385 195.041C234.506 194.234 236.049 192.911 238.015 191.07C238.304 193.172 238.861 195.13 239.684 196.945C241.93 201.926 245.689 204.416 250.963 204.416C254.641 204.416 258.189 203.456 261.607 201.535C265.058 199.582 268.036 197.076 270.543 194.016C271.878 194.471 273.342 194.699 274.938 194.699C276.565 194.699 278.209 194.097 279.869 192.893C280.595 192.376 281.414 191.707 282.326 190.885C282.608 193.057 283.173 195.077 284.02 196.945C286.266 201.926 290.025 204.416 295.299 204.416C298.977 204.416 302.525 203.456 305.943 201.535C309.394 199.582 312.372 197.076 314.879 194.016C316.214 194.471 317.678 194.699 319.273 194.699C320.901 194.699 322.545 194.097 324.205 192.893C325.1 192.256 326.136 191.387 327.314 190.286C325.603 197.094 324.648 201.332 324.449 203H332.018C334.329 201.047 336.575 195.188 338.756 185.422L339.049 184.104C344.615 184.104 347.952 184.722 349.059 185.959C349.579 186.512 349.84 187.261 349.84 188.205L349.156 197.482C349.156 202.105 350.686 204.416 353.746 204.416C355.667 204.416 357.831 203.374 360.24 201.291C361.232 200.435 362.824 198.957 365.016 196.859C365.278 199.606 366.86 201.572 369.762 202.756C371.161 203.342 372.577 203.765 374.01 204.025C375.475 204.286 376.858 204.416 378.16 204.416C379.495 204.416 380.813 204.237 382.115 203.879C383.45 203.521 384.671 203.114 385.777 202.658C386.884 202.17 388.186 201.454 389.684 200.51C391.181 199.566 392.402 198.768 393.346 198.117C394.322 197.434 395.592 196.457 397.154 195.188C398.749 193.918 399.889 192.99 400.572 192.404C401.288 191.786 402.411 190.793 403.941 189.426C405.504 188.059 406.48 187.212 406.871 186.887V181.516L392.369 193.381C394.648 190.256 395.787 187.489 395.787 185.08C395.787 183.518 394.729 181.662 392.613 179.514C391.702 178.57 390.758 177.577 389.781 176.535C387.145 173.866 385.273 170.855 384.166 167.502C386.152 167.502 388.007 166.949 389.732 165.842C391.49 164.702 392.369 163.124 392.369 161.105C392.369 159.966 391.344 159.396 389.293 159.396C384.638 159.396 381.139 160.65 378.795 163.156C376.451 165.63 375.279 168.771 375.279 172.58C375.279 175.152 375.719 177.528 376.598 179.709C376.044 180.393 375.003 181.532 373.473 183.127C372.435 184.209 371.486 185.209 370.628 186.126C369.345 187.416 367.852 188.907 366.148 190.598C364.716 191.997 363.349 193.348 362.047 194.65C360.745 195.92 359.996 196.652 359.801 196.848C359.638 197.01 359.443 197.092 359.215 197.092C358.629 197.092 358.336 196.001 358.336 193.82L358.434 190.207C358.434 187.993 357.994 186.203 357.115 184.836C356.041 183.143 353.811 182.297 350.426 182.297C350.556 182.264 350.702 182.215 350.865 182.15C351.028 182.085 351.614 181.89 352.623 181.564C353.632 181.206 355.39 180.49 357.896 179.416C359.101 178.895 359.98 178.439 360.533 178.049C361.087 177.658 361.738 177.137 362.486 176.486C363.268 175.803 363.821 175.119 364.146 174.436C364.472 173.752 364.765 172.954 365.025 172.043C365.286 171.099 365.416 169.862 365.416 168.332C365.416 166.77 364.814 165.321 363.609 163.986C362.405 162.652 360.842 161.984 358.922 161.984L341.93 170.09C341.93 169.992 343.46 164.719 346.52 154.27C349.612 143.82 351.777 136.333 353.014 131.809C352.688 131.678 351.891 131.613 350.621 131.613C349.384 131.613 348.131 131.646 346.861 131.711C345.624 131.776 344.599 132.297 343.785 133.273C342.483 134.868 341.067 138.514 339.537 144.211L335.973 157.492C333.209 167.693 330.94 176.209 329.167 183.04C328.748 183.47 328.298 183.939 327.818 184.445C326.646 185.682 325.751 186.61 325.133 187.229C324.514 187.847 323.798 188.514 322.984 189.23C322.171 189.914 321.438 190.402 320.787 190.695C320.169 190.956 319.566 191.086 318.98 191.086C318.395 191.086 317.695 190.923 316.881 190.598C319.908 186.919 321.422 182.704 321.422 177.951C321.422 175.64 320.738 173.687 319.371 172.092C318.036 170.497 315.888 169.699 312.926 169.699C309.964 169.699 307.701 170.513 306.139 172.141C304.576 173.736 303.795 175.835 303.795 178.439C303.795 181.011 304.446 183.55 305.748 186.057C307.083 188.563 308.971 190.581 311.412 192.111C308.808 195.041 306.106 196.506 303.307 196.506C300.507 196.506 298.131 195.204 296.178 192.6C294.257 189.995 293.297 186.512 293.297 182.15C293.297 177.756 294.892 173.801 298.082 170.285C301.5 166.574 306.448 164.719 312.926 164.719C313.642 164.263 314 163.563 314 162.619C313.935 162.196 313.577 161.984 312.926 161.984C303.616 161.984 296.145 164.263 290.514 168.82C285.319 173.049 282.534 178.719 282.159 185.833C281.611 186.403 281.157 186.869 280.797 187.229C280.178 187.847 279.462 188.514 278.648 189.23C277.835 189.914 277.102 190.402 276.451 190.695C275.833 190.956 275.23 191.086 274.645 191.086C274.059 191.086 273.359 190.923 272.545 190.598C275.572 186.919 277.086 182.704 277.086 177.951C277.086 175.64 276.402 173.687 275.035 172.092C273.701 170.497 271.552 169.699 268.59 169.699C265.628 169.699 263.365 170.513 261.803 172.141C260.24 173.736 259.459 175.835 259.459 178.439C259.459 181.011 260.11 183.55 261.412 186.057C262.747 188.563 264.635 190.581 267.076 192.111C264.472 195.041 261.77 196.506 258.971 196.506C256.171 196.506 253.795 195.204 251.842 192.6C249.921 189.995 248.961 186.512 248.961 182.15C248.961 177.756 250.556 173.801 253.746 170.285C257.164 166.574 262.112 164.719 268.59 164.719C269.306 164.263 269.664 163.563 269.664 162.619C269.599 162.196 269.241 161.984 268.59 161.984C259.28 161.984 251.809 164.263 246.178 168.82C240.983 173.049 238.197 178.721 237.823 185.837C237.2 186.453 236.518 187.128 235.777 187.863C231.969 191.607 228.876 194.113 226.5 195.383C229.039 193.299 230.846 190.484 231.92 186.936C233.027 183.387 233.58 179.872 233.58 176.389C233.58 172.873 232.734 170.122 231.041 168.137C229.348 166.118 226.76 165.109 223.277 165.109C221.454 165.109 219.306 166.102 216.832 168.088C214.391 170.041 212.942 171.913 212.486 173.703C220.82 173.703 224.986 176.372 224.986 181.711C224.986 184.152 224.156 186.757 222.496 189.523C220.836 192.29 218.736 194.618 216.197 196.506C213.691 198.361 211.298 199.289 209.02 199.289C205.211 199.289 203.307 196.685 203.307 191.477C203.307 188.547 203.909 184.641 205.113 179.758C205.504 178.065 206.057 175.819 206.773 173.02C207.522 170.188 208.027 168.251 208.287 167.209C224.563 152.17 232.701 140.5 232.701 132.199C232.701 127.935 230.195 125.803 225.182 125.803C222.74 125.803 220.266 126.568 217.76 128.098C215.286 129.595 213.089 131.516 211.168 133.859C209.247 136.203 207.571 138.693 206.139 141.33C204.739 143.967 203.746 146.343 203.16 148.459C202.574 150.542 201.516 154.221 199.986 159.494ZM371.982 190.088C372.975 189.112 374.025 188.078 375.133 186.984V186.83C375.323 186.656 375.518 186.479 375.719 186.301C377.444 184.738 378.437 183.811 378.697 183.518C378.99 183.908 379.609 184.673 380.553 185.812C381.497 186.919 382.197 187.798 382.652 188.449C383.141 189.068 383.694 189.882 384.312 190.891C384.964 191.867 385.436 192.811 385.729 193.723C386.021 194.634 386.168 195.66 386.168 196.799C386.168 197.938 385.501 198.882 384.166 199.631C382.831 200.347 381.074 200.705 378.893 200.705C376.712 200.705 374.677 200.087 372.789 198.85C370.901 197.58 369.957 196.034 369.957 194.211C369.957 193.111 370.632 191.737 371.982 190.088ZM268.443 174.387C271.113 174.387 272.447 175.884 272.447 178.879C272.447 180.409 272.105 182.134 271.422 184.055C270.771 185.943 270.12 187.424 269.469 188.498C267.939 187.456 266.718 186.057 265.807 184.299C264.928 182.508 264.488 180.783 264.488 179.123C264.488 175.965 265.807 174.387 268.443 174.387ZM312.779 174.387C315.449 174.387 316.783 175.884 316.783 178.879C316.783 180.409 316.441 182.134 315.758 184.055C315.107 185.943 314.456 187.424 313.805 188.498C312.275 187.456 311.054 186.057 310.143 184.299C309.264 182.508 308.824 180.783 308.824 179.123C308.824 175.965 310.143 174.387 312.779 174.387ZM342.613 180.686H339.342C339.537 178.895 340.514 176.877 342.271 174.631C344.062 172.385 345.982 170.529 348.033 169.064C350.117 167.567 351.744 166.818 352.916 166.818C355.455 166.818 356.725 168.381 356.725 171.506C356.725 174.598 354.625 177.121 350.426 179.074C348.18 180.148 345.576 180.686 342.613 180.686Z" />
</svg>
