<svg viewBox="0 0 714 343" fill="#408AFF" xmlns="http://www.w3.org/2000/svg">
<path fill-rule="evenodd" clip-rule="evenodd" d="M441.102 51.783C445.725 56.669 449.433 63.168 452.225 71.281C455.016 79.307 456.412 87.377 456.412 95.49C456.412 103.516 455.889 110.234 454.842 115.643C466.794 113.811 479.007 109.187 491.482 101.771V113.811C479.705 123.058 466.052 129.208 450.523 132.262C445.202 146.918 436.696 159.96 425.006 171.389C413.403 182.817 400.404 191.541 386.01 197.561C371.615 203.493 357.133 206.459 342.564 206.459C314.473 206.459 293.012 195.685 278.182 174.137C267.451 158.608 262.086 137.932 262.086 112.109C262.086 90.474 268.978 70.016 282.762 50.736C297.68 29.799 316.785 15.2734 340.078 7.16017C352.902 2.62367 366.424 0.355469 380.645 0.355469C385.966 0.355469 391.942 0.922472 398.572 2.05657L398.049 15.4043C393.949 14.7064 387.973 14.3574 380.121 14.3574C372.357 14.3574 363.458 16.1458 353.426 19.7227C343.48 23.2122 334.8 27.923 327.385 33.855C320.057 39.701 313.688 46.331 308.279 53.746C297.374 68.839 291.922 84.629 291.922 101.117C291.922 131.04 301.475 152.763 320.58 166.285C331.747 174.137 345.094 178.062 360.623 178.062C376.152 178.062 390.11 174.006 402.498 165.893C414.886 157.692 424.57 147.092 431.549 134.094H429.848C411.178 134.094 395.301 129.47 382.215 120.223C375.846 115.686 370.743 109.798 366.904 102.557C363.153 95.229 361.277 86.374 361.277 75.992C361.277 65.611 365.247 56.494 373.186 48.643C381.124 40.791 392.814 36.865 408.256 36.865C420.644 36.865 431.592 41.838 441.102 51.783ZM383.785 68.271C383.785 82.143 388.932 93.658 399.227 102.818C409.521 111.979 422.607 116.689 438.484 116.951C440.84 109.536 442.018 102.033 442.018 94.443C442.018 81.968 438.79 71.717 432.334 63.691C425.965 55.665 416.762 51.652 404.723 51.652C397.656 51.652 392.378 53.135 388.889 56.102C385.486 59.068 383.785 63.124 383.785 68.271ZM239.23 285.35C234.61 280.357 232.3 274.22 232.3 266.94C232.3 259.66 234.61 253.547 239.23 248.6C243.897 243.607 249.777 241.11 256.87 241.11C263.963 241.11 269.843 243.607 274.51 248.6C279.177 253.547 281.51 259.66 281.51 266.94C281.51 274.22 279.177 280.357 274.51 285.35C269.843 290.343 263.963 292.84 256.87 292.84C249.777 292.84 243.897 290.343 239.23 285.35ZM241.75 250.77C237.877 255.11 235.94 260.5 235.94 266.94C235.94 273.38 237.877 278.793 241.75 283.18C245.67 287.567 250.71 289.76 256.87 289.76C263.077 289.76 268.117 287.567 271.99 283.18C275.91 278.793 277.87 273.38 277.87 266.94C277.87 260.5 275.91 255.11 271.99 250.77C268.117 246.383 263.077 244.19 256.87 244.19C250.663 244.19 245.623 246.383 241.75 250.77ZM295.175 251.948C298.11 251.7 301.127 251.576 304.227 251.576C307.327 251.576 309.972 252.32 312.163 253.808C314.395 255.296 315.511 257.466 315.511 260.318C315.511 262.467 314.932 264.451 313.775 266.27C312.618 268.089 311.212 269.473 309.559 270.424C312.246 271.209 314.478 272.615 316.255 274.64C318.032 276.665 318.921 278.959 318.921 281.522C318.921 285.077 317.784 287.763 315.511 289.582C313.279 291.401 310.117 292.31 306.025 292.31C301.933 292.31 298.316 292.165 295.175 291.876V251.948ZM300.817 271.664L298.027 271.726V289.52C299.804 289.685 302.677 289.768 306.645 289.768C309.332 289.768 311.543 289.024 313.279 287.536C315.056 286.007 315.945 284.105 315.945 281.832C315.945 279.517 315.056 277.513 313.279 275.818C311.543 274.082 309.27 272.863 306.459 272.16C305.012 271.829 303.132 271.664 300.817 271.664ZM312.721 260.256C312.721 258.231 311.874 256.681 310.179 255.606C308.484 254.49 306.459 253.932 304.103 253.932C301.747 253.932 299.722 253.994 298.027 254.118V269.308C301.623 269.308 304.496 269.411 306.645 269.618C308.257 268.75 309.662 267.489 310.861 265.836C312.101 264.141 312.721 262.281 312.721 260.256ZM347.664 292.62C341.918 292.62 337.103 290.615 333.218 286.606C329.332 282.597 327.39 277.699 327.39 271.912C327.39 266.084 329.332 261.165 333.218 257.156C337.103 253.147 341.918 251.142 347.664 251.142C353.409 251.142 358.224 253.147 362.11 257.156C365.995 261.165 367.938 266.084 367.938 271.912C367.938 277.699 365.995 282.597 362.11 286.606C358.224 290.615 353.409 292.62 347.664 292.62ZM347.664 253.684C342.704 253.684 338.57 255.441 335.264 258.954C331.998 262.467 330.366 266.787 330.366 271.912C330.366 276.996 331.998 281.295 335.264 284.808C338.57 288.28 342.704 290.016 347.664 290.016C352.665 290.016 356.798 288.28 360.064 284.808C363.329 281.295 364.962 276.996 364.962 271.912C364.962 266.787 363.329 262.467 360.064 258.954C356.798 255.441 352.665 253.684 347.664 253.684ZM398.16 292.62C392.414 292.62 387.599 290.615 383.714 286.606C379.828 282.597 377.886 277.699 377.886 271.912C377.886 266.084 379.828 261.165 383.714 257.156C387.599 253.147 392.414 251.142 398.16 251.142C403.905 251.142 408.72 253.147 412.606 257.156C416.491 261.165 418.434 266.084 418.434 271.912C418.434 277.699 416.491 282.597 412.606 286.606C408.72 290.615 403.905 292.62 398.16 292.62ZM398.16 253.684C393.2 253.684 389.066 255.441 385.76 258.954C382.494 262.467 380.862 266.787 380.862 271.912C380.862 276.996 382.494 281.295 385.76 284.808C389.066 288.28 393.2 290.016 398.16 290.016C403.161 290.016 407.294 288.28 410.56 284.808C413.825 281.295 415.458 276.996 415.458 271.912C415.458 266.787 413.825 262.467 410.56 258.954C407.294 255.441 403.161 253.684 398.16 253.684ZM455.29 251.762L438.116 271.168C444.895 279.393 449.524 284.601 452.004 286.792C454.525 288.983 457.026 290.223 459.506 290.512L459.444 292.434C457.129 292.393 455.249 292.062 453.802 291.442C452.355 290.781 451.074 289.913 449.958 288.838C448.842 287.763 446.445 285.139 442.766 280.964C439.129 276.748 436.401 273.524 434.582 271.292L451.88 251.762H455.29ZM433.714 251.762V292H430.862V251.762H433.714ZM474.101 253.498C471.869 253.498 470.05 254.035 468.645 255.11C467.24 256.185 466.537 257.693 466.537 259.636C466.537 261.868 467.467 263.873 469.327 265.65C470.65 266.931 472.344 268.295 474.411 269.742C476.519 271.147 477.966 272.16 478.751 272.78C479.536 273.4 480.487 274.247 481.603 275.322C483.628 277.347 484.641 279.683 484.641 282.328C484.641 285.759 483.484 288.363 481.169 290.14C478.896 291.876 475.692 292.744 471.559 292.744C467.467 292.744 464.036 291.669 461.267 289.52L462.755 287.35C465.566 289.251 468.542 290.202 471.683 290.202C474.824 290.202 477.263 289.541 478.999 288.218C480.776 286.895 481.665 285.035 481.665 282.638C481.665 280.571 480.776 278.67 478.999 276.934C477.759 275.694 476.085 274.351 473.977 272.904C471.91 271.457 470.464 270.424 469.637 269.804C468.81 269.143 467.839 268.275 466.723 267.2C464.615 265.092 463.561 262.653 463.561 259.884C463.561 257.115 464.532 254.945 466.475 253.374C468.459 251.803 471.187 251.018 474.659 251.018C478.131 251.018 481.252 251.7 484.021 253.064L482.967 255.358C480.404 254.118 477.449 253.498 474.101 253.498ZM0.419998 328.396C0.419998 332.348 1.674 335.679 4.182 338.39C6.71533 341.101 9.9073 342.456 13.758 342.456C17.6087 342.456 20.8007 341.101 23.334 338.39C25.8673 335.679 27.134 332.348 27.134 328.396C27.134 324.444 25.8673 321.125 23.334 318.44C20.8007 315.729 17.6087 314.374 13.758 314.374C9.9073 314.374 6.71533 315.729 4.182 318.44C1.674 321.125 0.419998 324.444 0.419998 328.396ZM2.396 328.396C2.396 324.9 3.44733 321.974 5.55 319.618C7.6527 317.237 10.3887 316.046 13.758 316.046C17.1273 316.046 19.8633 317.237 21.966 319.618C24.094 321.974 25.158 324.9 25.158 328.396C25.158 331.892 24.094 334.831 21.966 337.212C19.8633 339.593 17.1273 340.784 13.758 340.784C10.414 340.784 7.678 339.593 5.55 337.212C3.44733 334.831 2.396 331.892 2.396 328.396ZM35.5629 314.83V342H49.8889V340.328H37.3869V314.83H35.5629ZM73.0404 337.782C70.887 339.707 68.0244 340.67 64.4524 340.67C61.5137 340.67 59.221 340.569 57.5744 340.366V316.426C59.2717 316.299 61.273 316.236 63.5784 316.236C67.1757 316.236 70.1904 317.389 72.6224 319.694C75.0797 321.999 76.3084 325.103 76.3084 329.004C76.3084 332.905 75.219 335.831 73.0404 337.782ZM74.0664 318.478C71.2544 315.869 67.7584 314.564 63.5784 314.564C60.9437 314.564 58.3344 314.653 55.7504 314.83V341.924C58.993 342.203 61.8937 342.342 64.4524 342.342C68.3537 342.342 71.609 341.291 74.2184 339.188C75.485 338.149 76.473 336.769 77.1824 335.046C77.917 333.298 78.2844 331.297 78.2844 329.042C78.2844 324.583 76.8784 321.062 74.0664 318.478ZM106.472 314.678C104.42 314.678 102.406 314.754 100.43 314.906V341.924C102.811 342.127 105.307 342.228 107.916 342.228C110.551 342.228 112.615 341.607 114.11 340.366C115.63 339.125 116.39 337.313 116.39 334.932C116.39 333.235 115.782 331.702 114.566 330.334C113.35 328.966 111.843 328.003 110.044 327.446C111.159 326.813 112.109 325.875 112.894 324.634C113.705 323.393 114.11 322.05 114.11 320.606C114.11 318.681 113.35 317.211 111.83 316.198C110.335 315.185 108.549 314.678 106.472 314.678ZM112.704 339.074C111.513 340.087 109.993 340.594 108.144 340.594C105.332 340.594 103.369 340.531 102.254 340.404V328.282H104.762C106.003 328.282 107.093 328.383 108.03 328.586C110.031 329.017 111.602 329.815 112.742 330.98C113.907 332.145 114.49 333.526 114.49 335.122C114.49 336.718 113.895 338.035 112.704 339.074ZM110.538 317.338C111.703 318.098 112.286 319.175 112.286 320.568C112.286 321.936 111.881 323.19 111.07 324.33C110.259 325.47 109.284 326.344 108.144 326.952C106.371 326.8 105.028 326.724 104.116 326.724H102.254V316.35C103.774 316.249 105.243 316.198 106.662 316.198C108.106 316.198 109.398 316.578 110.538 317.338ZM122.733 328.396C122.733 332.348 123.987 335.679 126.495 338.39C129.028 341.101 132.22 342.456 136.071 342.456C139.921 342.456 143.113 341.101 145.647 338.39C148.18 335.679 149.447 332.348 149.447 328.396C149.447 324.444 148.18 321.125 145.647 318.44C143.113 315.729 139.921 314.374 136.071 314.374C132.22 314.374 129.028 315.729 126.495 318.44C123.987 321.125 122.733 324.444 122.733 328.396ZM124.709 328.396C124.709 324.9 125.76 321.974 127.863 319.618C129.965 317.237 132.701 316.046 136.071 316.046C139.44 316.046 142.176 317.237 144.279 319.618C146.407 321.974 147.471 324.9 147.471 328.396C147.471 331.892 146.407 334.831 144.279 337.212C142.176 339.593 139.44 340.784 136.071 340.784C132.727 340.784 129.991 339.593 127.863 337.212C125.76 334.831 124.709 331.892 124.709 328.396ZM156.279 328.396C156.279 332.348 157.533 335.679 160.041 338.39C162.575 341.101 165.767 342.456 169.617 342.456C173.468 342.456 176.66 341.101 179.193 338.39C181.727 335.679 182.993 332.348 182.993 328.396C182.993 324.444 181.727 321.125 179.193 318.44C176.66 315.729 173.468 314.374 169.617 314.374C165.767 314.374 162.575 315.729 160.041 318.44C157.533 321.125 156.279 324.444 156.279 328.396ZM158.255 328.396C158.255 324.9 159.307 321.974 161.409 319.618C163.512 317.237 166.248 316.046 169.617 316.046C172.987 316.046 175.723 317.237 177.825 319.618C179.953 321.974 181.017 324.9 181.017 328.396C181.017 331.892 179.953 334.831 177.825 337.212C175.723 339.593 172.987 340.784 169.617 340.784C166.273 340.784 163.537 339.593 161.409 337.212C159.307 334.831 158.255 331.892 158.255 328.396ZM196.21 327.978L207.762 314.83H205.634L193.968 328.054C195.21 329.549 197.059 331.715 199.516 334.552C201.999 337.364 203.608 339.137 204.342 339.872C205.077 340.581 205.938 341.164 206.926 341.62C207.914 342.051 209.168 342.279 210.688 342.304L210.726 341.088C209.916 340.987 209.156 340.784 208.446 340.48C207.737 340.151 207.205 339.859 206.85 339.606C206.521 339.327 206.052 338.922 205.444 338.39C204.862 337.858 203.557 336.452 201.53 334.172C199.529 331.892 197.756 329.827 196.21 327.978ZM193.246 342V314.83H191.422V342H193.246ZM221.219 316.046C223.043 316.046 224.879 316.439 226.729 317.224L227.375 315.742C225.424 314.83 223.309 314.374 221.029 314.374C218.774 314.374 216.975 314.906 215.633 315.97C214.315 317.009 213.657 318.427 213.657 320.226C213.657 321.594 214.075 322.873 214.911 324.064C215.747 325.255 216.76 326.281 217.951 327.142C219.141 328.003 220.332 328.852 221.523 329.688C222.713 330.499 223.727 331.423 224.563 332.462C225.399 333.475 225.817 334.552 225.817 335.692C225.817 337.339 225.234 338.605 224.069 339.492C222.903 340.353 221.231 340.784 219.053 340.784C216.874 340.784 214.873 340.189 213.049 338.998L212.137 340.366C214.062 341.759 216.38 342.456 219.091 342.456C221.827 342.456 223.967 341.873 225.513 340.708C227.058 339.517 227.831 337.769 227.831 335.464C227.831 334.096 227.413 332.829 226.577 331.664C225.741 330.499 224.727 329.498 223.537 328.662C222.346 327.826 221.155 327.015 219.965 326.23C218.774 325.419 217.761 324.507 216.925 323.494C216.089 322.455 215.671 321.341 215.671 320.15C215.671 317.414 217.52 316.046 221.219 316.046ZM249.461 314.83V342H251.285V327.978H262.305V326.42H251.285V316.426H263.331V314.83H249.461ZM268.498 328.396C268.498 332.348 269.752 335.679 272.26 338.39C274.793 341.101 277.985 342.456 281.836 342.456C285.687 342.456 288.879 341.101 291.412 338.39C293.945 335.679 295.212 332.348 295.212 328.396C295.212 324.444 293.945 321.125 291.412 318.44C288.879 315.729 285.687 314.374 281.836 314.374C277.985 314.374 274.793 315.729 272.26 318.44C269.752 321.125 268.498 324.444 268.498 328.396ZM270.474 328.396C270.474 324.9 271.525 321.974 273.628 319.618C275.731 317.237 278.467 316.046 281.836 316.046C285.205 316.046 287.941 317.237 290.044 319.618C292.172 321.974 293.236 324.9 293.236 328.396C293.236 331.892 292.172 334.831 290.044 337.212C287.941 339.593 285.205 340.784 281.836 340.784C278.492 340.784 275.756 339.593 273.628 337.212C271.525 334.831 270.474 331.892 270.474 328.396ZM303.185 317.452V342H304.933V331.892C306.909 332.019 308.923 332.082 310.975 332.082C313.939 336.186 315.852 338.707 316.713 339.644C317.6 340.581 318.486 341.253 319.373 341.658C320.26 342.038 321.412 342.241 322.831 342.266L322.869 341.088C321.172 340.885 319.601 340.037 318.157 338.542C317.448 337.757 315.586 335.363 312.571 331.36C313.66 330.575 314.636 329.549 315.497 328.282C316.358 327.015 316.789 325.635 316.789 324.14C316.789 321.911 316.029 320.201 314.509 319.01C312.989 317.794 311.064 317.186 308.733 317.186C307.213 317.186 305.364 317.275 303.185 317.452ZM313.217 328.662C312.077 329.979 311.013 330.638 310.025 330.638C308.454 330.638 306.757 330.575 304.933 330.448V318.858C306.301 318.757 307.492 318.706 308.505 318.706C310.405 318.706 311.95 319.162 313.141 320.074C314.332 320.986 314.927 322.316 314.927 324.064C314.927 325.812 314.357 327.345 313.217 328.662ZM342.278 322.392L342.202 319.162L342.164 318.326C342.518 318.807 343.329 319.77 344.596 321.214L362.836 342.228H363.672V314.83H361.848V334.514C361.848 336.085 361.898 337.478 362 338.694C361.341 337.833 360.404 336.68 359.188 335.236L341.29 314.602H340.453V342H342.278V322.392ZM373.703 314.83V342H386.738V340.404H375.528V327.978H385.294V326.42H375.528V316.426H386.32V314.83H373.703ZM408.935 315.362L401.069 335.426C400.335 337.199 399.904 338.377 399.777 338.96C399.752 338.884 399.625 338.479 399.397 337.744C399.195 337.009 398.929 336.186 398.599 335.274L391.645 314.83H389.631L399.169 342.228H400.233L408.175 322.05C408.657 320.859 409.049 319.808 409.353 318.896C409.353 318.921 409.366 318.997 409.391 319.124L409.543 319.58C409.619 319.757 409.695 319.973 409.771 320.226C409.847 320.479 409.936 320.771 410.037 321.1C410.164 321.429 410.278 321.759 410.379 322.088L417.409 342.228H418.473L427.935 314.83H426.035L419.043 335.616C418.537 337.06 418.182 338.2 417.979 339.036C417.802 338.327 417.447 337.174 416.915 335.578L410.037 315.362H408.935ZM450.788 319.618C452.891 317.237 455.602 316.046 458.92 316.046C461.707 316.046 464.62 316.502 467.66 317.414L468.154 315.894C465.038 314.881 461.96 314.374 458.92 314.374C455.044 314.374 451.865 315.729 449.382 318.44C446.9 321.125 445.658 324.444 445.658 328.396C445.658 332.323 447.026 335.654 449.762 338.39C452.498 341.101 455.842 342.456 459.794 342.456C463.772 342.456 466.862 341.772 469.066 340.404V328.396H467.242V339.568C465.292 340.379 462.847 340.784 459.908 340.784C456.488 340.784 453.588 339.581 451.206 337.174C448.825 334.767 447.634 331.841 447.634 328.396C447.634 324.925 448.686 321.999 450.788 319.618ZM478.5 314.83V342H491.534V340.404H480.324V327.978H490.09V326.42H480.324V316.426H491.116V314.83H478.5ZM500.66 322.392L500.584 319.162L500.546 318.326C500.901 318.807 501.712 319.77 502.978 321.214L521.218 342.228H522.054V314.83H520.23V334.514C520.23 336.085 520.281 337.478 520.382 338.694C519.724 337.833 518.786 336.68 517.57 335.236L499.672 314.602H498.836V342H500.66V322.392ZM532.086 314.83V342H545.12V340.404H533.91V327.978H543.676V326.42H533.91V316.426H544.702V314.83H532.086ZM552.422 314.944V342H554.246V330.828C556.273 330.98 558.528 331.056 561.01 331.056C564.481 335.819 566.647 338.656 567.508 339.568C568.395 340.48 569.32 341.164 570.282 341.62C571.245 342.051 572.499 342.279 574.044 342.304L574.053 342H574.964L578.878 332.576H591.038L594.952 342H597.004L585.528 314.64H584.464L573.449 340.988C571.752 340.646 570.215 339.743 568.838 338.276C568.433 337.82 567.534 336.705 566.14 334.932C564.772 333.133 563.62 331.588 562.682 330.296C563.873 329.46 564.95 328.333 565.912 326.914C566.875 325.495 567.356 323.963 567.356 322.316C567.356 319.884 566.52 318.009 564.848 316.692C563.176 315.349 561.048 314.678 558.464 314.678C556.843 314.678 554.829 314.767 552.422 314.944ZM563.48 327.332C562.214 328.801 561.023 329.536 559.908 329.536C558.16 329.536 556.273 329.473 554.246 329.346V316.464C555.766 316.363 557.096 316.312 558.236 316.312C560.39 316.312 562.112 316.819 563.404 317.832C564.722 318.82 565.38 320.289 565.38 322.24C565.38 324.165 564.747 325.863 563.48 327.332ZM584.825 317.814C584.85 317.737 584.869 317.693 584.882 317.68C584.882 317.933 585.325 319.023 586.212 320.948L590.392 331.018H579.524L583.704 320.91C584.033 320.15 584.375 319.225 584.73 318.136C584.768 317.997 584.799 317.89 584.825 317.814ZM595.557 316.426H604.753V342H606.577V316.426H615.773V314.83H595.557V316.426ZM621.631 314.83V342H623.455V314.83H621.631ZM631.873 328.396C631.873 332.348 633.127 335.679 635.635 338.39C638.168 341.101 641.36 342.456 645.211 342.456C649.062 342.456 652.254 341.101 654.787 338.39C657.32 335.679 658.587 332.348 658.587 328.396C658.587 324.444 657.32 321.125 654.787 318.44C652.254 315.729 649.062 314.374 645.211 314.374C641.36 314.374 638.168 315.729 635.635 318.44C633.127 321.125 631.873 324.444 631.873 328.396ZM633.849 328.396C633.849 324.9 634.9 321.974 637.003 319.618C639.106 317.237 641.842 316.046 645.211 316.046C648.58 316.046 651.316 317.237 653.419 319.618C655.547 321.974 656.611 324.9 656.611 328.396C656.611 331.892 655.547 334.831 653.419 337.212C651.316 339.593 648.58 340.784 645.211 340.784C641.867 340.784 639.131 339.593 637.003 337.212C634.9 334.831 633.849 331.892 633.849 328.396ZM668.84 322.392L668.764 319.162L668.726 318.326C669.081 318.807 669.891 319.77 671.158 321.214L689.398 342.228H690.234V314.83H688.41V334.514C688.41 336.085 688.461 337.478 688.562 338.694C687.903 337.833 686.966 336.68 685.75 335.236L667.852 314.602H667.016V342H668.84V322.392ZM706.498 316.046C708.322 316.046 710.159 316.439 712.008 317.224L712.654 315.742C710.703 314.83 708.588 314.374 706.308 314.374C704.053 314.374 702.255 314.906 700.912 315.97C699.595 317.009 698.936 318.427 698.936 320.226C698.936 321.594 699.354 322.873 700.19 324.064C701.026 325.255 702.039 326.281 703.23 327.142C704.421 328.003 705.611 328.852 706.802 329.688C707.993 330.499 709.006 331.423 709.842 332.462C710.678 333.475 711.096 334.552 711.096 335.692C711.096 337.339 710.513 338.605 709.348 339.492C708.183 340.353 706.511 340.784 704.332 340.784C702.153 340.784 700.152 340.189 698.328 338.998L697.416 340.366C699.341 341.759 701.659 342.456 704.37 342.456C707.106 342.456 709.247 341.873 710.792 340.708C712.337 339.517 713.11 337.769 713.11 335.464C713.11 334.096 712.692 332.829 711.856 331.664C711.02 330.499 710.007 329.498 708.816 328.662C707.625 327.826 706.435 327.015 705.244 326.23C704.053 325.419 703.04 324.507 702.204 323.494C701.368 322.455 700.95 321.341 700.95 320.15C700.95 317.414 702.799 316.046 706.498 316.046Z"/>
</svg>
