<svg width="16" height="14" viewBox="0 0 16 14" fill="none" xmlns="http://www.w3.org/2000/svg">
<path d="M7.76429 0.0854492L2.76429 4.46045C2.63407 4.57439 2.63407 4.75896 2.76429 4.87288C2.89451 4.98682 3.10545 4.98682 3.23563 4.87288L7.66663 0.995749L7.66663 13.7083C7.66663 13.8695 7.81573 14 7.99998 14C8.18423 14 8.33332 13.8695 8.33332 13.7083V0.995749L12.7643 4.87288C12.8945 4.98682 13.1054 4.98682 13.2356 4.87288C13.3007 4.81592 13.3333 4.74127 13.3333 4.66665C13.3333 4.59203 13.3007 4.51741 13.2356 4.46042L8.23563 0.0854216C8.10545 -0.028492 7.89451 -0.028492 7.76429 0.0854492Z" fill="black"/>
</svg>
